{"title":"Chile Puede 2008 DVDrip 550MB","uid":8617675,"size":576967318,"categoryP":"video","categoryS":"movies","magnet":"?xt=urn:btih:7f4cf9166434d97f109bcbfc5f2d6e644fc21de8&amp;dn=Chile+Puede+2008+DVDrip+550MB&amp;tr=udp%3A%2F%2Ftracker.openbittorrent.com%3A80&amp;tr=udp%3A%2F%2Fopen.demonii.com%3A1337&amp;tr=udp%3A%2F%2Ftracker.coppersurfer.tk%3A6969&amp;tr=udp%3A%2F%2Fexodus.desync.com%3A6969","seeders":1,"leechers":0,"uploader":"aluculef","files":-1,"time":1372288847,"description":"Pelicula chilena\n\nMas informacion:\n &lt;a href=&quot;\nhttp://es.wikipedia.org/wiki/ChilePuede&quot; rel=&quot;nofollow&quot; target=&quot;_NEW&quot;&gt;\nhttp://es.wikipedia.org/wiki/ChilePuede&lt;/a&gt;\n\n\n\n\n\n\nFormat                                   : AVI\nFormat/Info                              : Audio Video Interleave\nFile size                                : 550 MiB\nDuration                                 : 1h 24mn\nOverall bit rate                         : 911 Kbps\n\nVideo\nID                                       : 0\nFormat                                   : MPEG-4 Visual\nFormat profile                           : Advanced Simple@L5\nFormat settings, BVOP                    : 2\nFormat settings, QPel                    : No\nFormat settings, GMC                     : No warppoints\nFormat settings, Matrix                  : Default (H.263)\nMuxing mode                              : Packed bitstream\nCodec ID                                 : XVID\nCodec ID/Hint                            : XviD\nDuration                                 : 1h 24mn\nBit rate                                 : 774 Kbps\nWidth                                    : 720 pixels\nHeight                                   : 400 pixels\nDisplay aspect ratio                     : 16:9\nFrame rate                               : 23.976 fps\nColor space                              : YUV\nChroma subsampling                       : 4:2:0\nBit depth                                : 8 bits\nScan type                                : Progressive\nCompression mode                         : Lossy\nBits/(Pixel*Frame)                       : 0.112\nStream size                              : 467 MiB (85%)\nWriting library                          : XviD 1.2.0.dev47 (UTC 2006-11-01)\n\nAudio\nID                                       : 1\nFormat                                   : MPEG Audio\nFormat version                           : Version 1\nFormat profile                           : Layer 3\nCodec ID                                 : 55\nCodec ID/Hint                            : MP3\nDuration                                 : 1h 24mn\nBit rate mode                            : Constant\nBit rate                                 : 128 Kbps\nChannel(s)                               : 2 channels\nSampling rate                            : 44.1 KHz\nCompression mode                         : Lossy\nStream size                              : 77.3 MiB (14%)\nAlignment                                : Split accross interleaves\nInterleave, duration                     : 42 ms (1.00 video frame)\nWriting library                          : LAMELAME_MAJOR_VERSI\n","torrent":{"xt":"urn:btih:7f4cf9166434d97f109bcbfc5f2d6e644fc21de8","amp;dn":"Chile+Puede+2008+DVDrip+550MB","amp;tr":["udp%3A%2F%2Ftracker.openbittorrent.com%3A80","udp%3A%2F%2Fopen.demonii.com%3A1337","udp%3A%2F%2Ftracker.coppersurfer.tk%3A6969","udp%3A%2F%2Fexodus.desync.com%3A6969"],"infoHash":"7f4cf9166434d97f109bcbfc5f2d6e644fc21de8","infoHashBuffer":{"type":"Buffer","data":[127,76,249,22,100,52,217,127,16,155,203,252,95,45,110,100,79,194,29,232]},"announce":[],"urlList":[]}}